<?xml version="1.0" encoding="utf-8"?>
<!-- Generator: Adobe Illustrator 19.1.0, SVG Export Plug-In . SVG Version: 6.00 Build 0)  -->
<svg version="1.1" id="Layer_1" xmlns="http://www.w3.org/2000/svg"  x="0px" y="0px"
	 viewBox="-265 388.9 64 64" style="enable-background:new -265 388.9 64 64;" xml:space="preserve">
<style type="text/css">
	.st0{fill:url(#SVGID_1_);}
	.st1{fill:url(#SVGID_2_);}
	.st2{fill:url(#SVGID_3_);}
	.st3{fill:url(#SVGID_4_);}
	.st4{fill:#FFFFFF;}
</style>
<g>
	<linearGradient id="SVGID_1_" gradientUnits="userSpaceOnUse" x1="-244.6534" y1="402.7293" x2="-223.2596" y2="402.7293">
		<stop  offset="0" style="stop-color:#ED358C"/>
		<stop  offset="0.1553" style="stop-color:#E9388C"/>
		<stop  offset="0.2969" style="stop-color:#DE418C"/>
		<stop  offset="0.4332" style="stop-color:#CC508C"/>
		<stop  offset="0.5662" style="stop-color:#B2658D"/>
		<stop  offset="0.6969" style="stop-color:#90808D"/>
		<stop  offset="0.8259" style="stop-color:#67A18E"/>
		<stop  offset="0.9512" style="stop-color:#37C78F"/>
		<stop  offset="1" style="stop-color:#22D88F"/>
	</linearGradient>
	<polygon class="st0" points="-240.4,414.8 -244.7,416.6 -240.8,388.9 -226.1,397 	"/>
	<linearGradient id="SVGID_2_" gradientUnits="userSpaceOnUse" x1="-248.726" y1="397.1024" x2="-258.1388" y2="460.2634">
		<stop  offset="9.139785e-002" style="stop-color:#22D88F"/>
		<stop  offset="0.9032" style="stop-color:#029DE0"/>
	</linearGradient>
	<polygon class="st1" points="-242.7,427.3 -240.6,388.9 -259.1,400.5 -265,435.9 	"/>
	<linearGradient id="SVGID_3_" gradientUnits="userSpaceOnUse" x1="-206.6355" y1="394.8255" x2="-271.0188" y2="462.8239">
		<stop  offset="9.139785e-002" style="stop-color:#22D88F"/>
		<stop  offset="0.9032" style="stop-color:#029DE0"/>
	</linearGradient>
	<polygon class="st2" points="-202.3,408.1 -210.5,391.3 -226.1,397 -237.5,409.6 -265,435.9 -244.2,451.1 -218.2,427.5 	"/>
	<linearGradient id="SVGID_4_" gradientUnits="userSpaceOnUse" x1="-228.3246" y1="434.0244" x2="-203.8571" y2="437.5032">
		<stop  offset="9.139785e-002" style="stop-color:#22D88F"/>
		<stop  offset="0.9032" style="stop-color:#029DE0"/>
	</linearGradient>
	<polygon class="st3" points="-238.1,416.2 -241.7,438.1 -227.1,449.4 -211.1,452.9 -201,430.1 	"/>
</g>
<g>
	<rect x="-253" y="400.9" width="40" height="40"/>
	<rect x="-249.2" y="433.4" class="st4" width="15" height="2.5"/>
	<path class="st4" d="M-249.5,414.5L-249.5,414.5c0-4.8,3.6-8.6,8.6-8.6c3.1,0,5,1,6.5,2.6l-2.3,2.7c-1.3-1.2-2.6-1.9-4.2-1.9
		c-2.8,0-4.8,2.3-4.8,5.2v0c0,2.8,2,5.2,4.8,5.2c1.9,0,3.1-0.8,4.4-1.9l2.3,2.3c-1.7,1.8-3.6,3-6.8,3
		C-245.9,423-249.5,419.2-249.5,414.5"/>
	<path class="st4" d="M-231.7,406.1h3.7v13.5h7.2v3.1h-10.9V406.1z"/>
</g>
</svg>
