<?xml version="1.0" encoding="utf-8"?>
<!-- Generator: Adobe Illustrator 17.0.1, SVG Export Plug-In . SVG Version: 6.00 Build 0)  -->
<!DOCTYPE svg PUBLIC "-//W3C//DTD SVG 1.1//EN" "http://www.w3.org/Graphics/SVG/1.1/DTD/svg11.dtd">
<svg version="1.1" id="Layer_1" xmlns="http://www.w3.org/2000/svg" xmlns:xlink="http://www.w3.org/1999/xlink" x="0px" y="0px"
	 width="110px" height="110px" viewBox="0 0 110 110" enable-background="new 0 0 110 110" xml:space="preserve">
<g>
	<path fill="#485C75" d="M105.916,96.173c-5.82,2.288-11.195,3.373-12.942,4.245c-6.922,3.454-10.882,6.393-16.123,7.769
		c-6.993,1.835-13.652,1.997-18.495,1.69c-1.339-0.085,0.66,0.014-0.532-0.063c-0.024-0.001-0.047-0.002-0.071-0.003
		c-0.032,0.001-0.059,0.02-0.091,0.021c-0.114-0.009-0.225-0.026-0.339-0.037c-0.194-0.01-0.386-0.009-0.581-0.021
		C26.901,107.882,4.143,81.901,6.025,51.85c0.002-0.034,0.006-0.067,0.009-0.1c0-0.019,0-0.037,0.001-0.057
		c0.202-3.224,0.684-6.275,1.391-9.172c0.134-0.578,0.287-1.147,0.439-1.718c0.012-0.041,0.021-0.083,0.032-0.124
		C14.529,15.955,37.741-1.561,64.091,0.11c4.193,0.266,5.96,0.378,5.96,0.378l0.01,0.062c5.599,0.308,17.396,2.598,20.334,4.072
		c2.583,1.297,5.801,3.308,6.948,5.145c2.538,4.064,1.875,6.385,2.449,8.006c1.063,3.003,3.489,4.146,5.753,5.784
		c-0.175,1.053-0.58,1.702-1.263,2.708c-2.346,3.453-6.732,5.074-10.755,4.219c-10.011-2.129-17.022-2.33-17.536-2.362
		c-0.678-0.043-0.737-0.047-1.416-0.09c-0.007,0-0.122-0.008-0.281-0.018l-0.001,0.009c-11.819-0.65-21.682,5.052-26.15,15.439
		c-0.342,0.795-1.425,4.137-0.211,7.844c0.601,1.836,1.494,3.423,2.623,4.73c1.51,1.748,2.262,4.391,2.529,5.414
		c1.213,4.636,3.714,8.781,7.122,11.986c-2.704,0.885-7.945-0.422-11.527-3.37c-1.585-1.305-2.328-2.508-3.363-2.439
		c-0.692,0.046-0.548,0.87-0.069,1.669c0.988,1.647,1.61,2.669,3.808,4.673c2.809,2.561,5.449,4.179,6.942,5.171
		c3.874,2.572,10.139,4.159,15.097,4.473c0.678,0.043,0.419,0.027,1.097,0.07c1.512,0.096,2.351,0.235,4.221,0.034
		c9.353-1.006,16.352-6.209,20.798-11.059l4.431,11.97c-1.289,0.983-2.897,2.087-5.348,3.56c-1.168,0.702,0.04,2.187,1.839,1.053
		c1.087-0.483,2.703-1.369,4.348-2.346L105.916,96.173z M91.932,13.841c-1.401-0.089-2.608,0.982-2.696,2.391
		s0.976,2.624,2.376,2.713c1.401,0.089,2.607-0.982,2.696-2.391C94.396,15.144,93.332,13.93,91.932,13.841z"/>
	<path fill="#F5921F" d="M59.45,53.934c0.618-9.811,9.103-17.29,18.91-16.672c9.814,0.618,17.292,9.103,16.674,18.915
		C94.415,65.99,85.93,73.469,76.116,72.85C66.31,72.232,58.831,63.747,59.45,53.934"/>
</g>
</svg>
